<?xml version="1.0" encoding="UTF-8" standalone="no"?><!DOCTYPE svg PUBLIC "-//W3C//DTD SVG 1.1//EN" "http://www.w3.org/Graphics/SVG/1.1/DTD/svg11.dtd"><!-- Generated by graphviz version 2.40.1 (20161225.0304)
 --><!-- Title: %0 Pages: 1 --><svg xmlns="http://www.w3.org/2000/svg" xmlns:xlink="http://www.w3.org/1999/xlink" width="353pt" height="620pt" viewBox="0.00 0.00 352.53 620.00">
<g id="graph0" class="graph" transform="scale(1 1) rotate(0) translate(4 616)">
<title>%0</title>
<polygon fill="#ffffff" stroke="transparent" points="-4,4 -4,-616 348.5308,-616 348.5308,4 -4,4"/>
<!-- (0, 0, 0, 0) -->
<g id="node1" class="node">
<title>(0, 0, 0, 0)</title>
<ellipse fill="none" stroke="#000000" cx="171.2654" cy="-594" rx="51.0319" ry="18"/>
<text text-anchor="middle" x="171.2654" y="-589.8" font-family="Times,serif" font-size="14.00" fill="#000000">(0, 0, 0, 0)</text>
</g>
<!-- (1, 0, 0, 0) -->
<g id="node2" class="node">
<title>(1, 0, 0, 0)</title>
<ellipse fill="none" stroke="#000000" cx="171.2654" cy="-522" rx="51.0319" ry="18"/>
<text text-anchor="middle" x="171.2654" y="-517.8" font-family="Times,serif" font-size="14.00" fill="#000000">(1, 0, 0, 0)</text>
</g>
<!-- (0, 0, 0, 0)&#45;&gt;(1, 0, 0, 0) -->
<g id="edge1" class="edge">
<title>(0, 0, 0, 0)-&gt;(1, 0, 0, 0)</title>
<path fill="none" stroke="#000000" d="M171.2654,-575.8314C171.2654,-568.131 171.2654,-558.9743 171.2654,-550.4166"/>
<polygon fill="#000000" stroke="#000000" points="174.7655,-550.4132 171.2654,-540.4133 167.7655,-550.4133 174.7655,-550.4132"/>
</g>
<!-- (2, 0, 0, 0) -->
<g id="node3" class="node">
<title>(2, 0, 0, 0)</title>
<ellipse fill="none" stroke="#000000" cx="111.2654" cy="-450" rx="51.0319" ry="18"/>
<text text-anchor="middle" x="111.2654" y="-445.8" font-family="Times,serif" font-size="14.00" fill="#000000">(2, 0, 0, 0)</text>
</g>
<!-- (1, 0, 0, 0)&#45;&gt;(2, 0, 0, 0) -->
<g id="edge2" class="edge">
<title>(1, 0, 0, 0)-&gt;(2, 0, 0, 0)</title>
<path fill="none" stroke="#000000" d="M156.7411,-504.5708C149.4254,-495.7919 140.4189,-484.9841 132.3565,-475.3093"/>
<polygon fill="#000000" stroke="#000000" points="134.9546,-472.9598 125.8639,-467.5182 129.577,-477.4411 134.9546,-472.9598"/>
</g>
<!-- (1, 1, 0, 0) -->
<g id="node13" class="node">
<title>(1, 1, 0, 0)</title>
<ellipse fill="none" stroke="#000000" cx="232.2654" cy="-450" rx="51.0319" ry="18"/>
<text text-anchor="middle" x="232.2654" y="-445.8" font-family="Times,serif" font-size="14.00" fill="#000000">(1, 1, 0, 0)</text>
</g>
<!-- (1, 0, 0, 0)&#45;&gt;(1, 1, 0, 0) -->
<g id="edge3" class="edge">
<title>(1, 0, 0, 0)-&gt;(1, 1, 0, 0)</title>
<path fill="none" stroke="#000000" d="M186.0318,-504.5708C193.5246,-495.7269 202.7618,-484.8239 211.0048,-475.0945"/>
<polygon fill="#000000" stroke="#000000" points="213.8412,-477.161 217.635,-467.2687 208.5003,-472.6361 213.8412,-477.161"/>
</g>
<!-- (2, 1, 0, 0) -->
<g id="node4" class="node">
<title>(2, 1, 0, 0)</title>
<ellipse fill="none" stroke="#000000" cx="111.2654" cy="-378" rx="51.0319" ry="18"/>
<text text-anchor="middle" x="111.2654" y="-373.8" font-family="Times,serif" font-size="14.00" fill="#000000">(2, 1, 0, 0)</text>
</g>
<!-- (2, 0, 0, 0)&#45;&gt;(2, 1, 0, 0) -->
<g id="edge4" class="edge">
<title>(2, 0, 0, 0)-&gt;(2, 1, 0, 0)</title>
<path fill="none" stroke="#000000" d="M111.2654,-431.8314C111.2654,-424.131 111.2654,-414.9743 111.2654,-406.4166"/>
<polygon fill="#000000" stroke="#000000" points="114.7655,-406.4132 111.2654,-396.4133 107.7655,-406.4133 114.7655,-406.4132"/>
</g>
<!-- (2, 2, 0, 0) -->
<g id="node5" class="node">
<title>(2, 2, 0, 0)</title>
<ellipse fill="none" stroke="#000000" cx="51.2654" cy="-306" rx="51.0319" ry="18"/>
<text text-anchor="middle" x="51.2654" y="-301.8" font-family="Times,serif" font-size="14.00" fill="#000000">(2, 2, 0, 0)</text>
</g>
<!-- (2, 1, 0, 0)&#45;&gt;(2, 2, 0, 0) -->
<g id="edge5" class="edge">
<title>(2, 1, 0, 0)-&gt;(2, 2, 0, 0)</title>
<path fill="none" stroke="#000000" d="M96.7411,-360.5708C89.4254,-351.7919 80.4189,-340.9841 72.3565,-331.3093"/>
<polygon fill="#000000" stroke="#000000" points="74.9546,-328.9598 65.8639,-323.5182 69.577,-333.4411 74.9546,-328.9598"/>
</g>
<!-- (2, 1, 1, 0) -->
<g id="node11" class="node">
<title>(2, 1, 1, 0)</title>
<ellipse fill="none" stroke="#000000" cx="172.2654" cy="-306" rx="51.0319" ry="18"/>
<text text-anchor="middle" x="172.2654" y="-301.8" font-family="Times,serif" font-size="14.00" fill="#000000">(2, 1, 1, 0)</text>
</g>
<!-- (2, 1, 0, 0)&#45;&gt;(2, 1, 1, 0) -->
<g id="edge6" class="edge">
<title>(2, 1, 0, 0)-&gt;(2, 1, 1, 0)</title>
<path fill="none" stroke="#000000" d="M126.0318,-360.5708C133.5246,-351.7269 142.7618,-340.8239 151.0048,-331.0945"/>
<polygon fill="#000000" stroke="#000000" points="153.8412,-333.161 157.635,-323.2687 148.5003,-328.6361 153.8412,-333.161"/>
</g>
<!-- (2, 2, 1, 0) -->
<g id="node6" class="node">
<title>(2, 2, 1, 0)</title>
<ellipse fill="none" stroke="#000000" cx="111.2654" cy="-234" rx="51.0319" ry="18"/>
<text text-anchor="middle" x="111.2654" y="-229.8" font-family="Times,serif" font-size="14.00" fill="#000000">(2, 2, 1, 0)</text>
</g>
<!-- (2, 2, 0, 0)&#45;&gt;(2, 2, 1, 0) -->
<g id="edge7" class="edge">
<title>(2, 2, 0, 0)-&gt;(2, 2, 1, 0)</title>
<path fill="none" stroke="#000000" d="M65.7897,-288.5708C73.1055,-279.7919 82.112,-268.9841 90.1744,-259.3093"/>
<polygon fill="#000000" stroke="#000000" points="92.9538,-261.4411 96.6669,-251.5182 87.5762,-256.9598 92.9538,-261.4411"/>
</g>
<!-- (2, 2, 2, 0) -->
<g id="node7" class="node">
<title>(2, 2, 2, 0)</title>
<ellipse fill="none" stroke="#000000" cx="111.2654" cy="-162" rx="51.0319" ry="18"/>
<text text-anchor="middle" x="111.2654" y="-157.8" font-family="Times,serif" font-size="14.00" fill="#000000">(2, 2, 2, 0)</text>
</g>
<!-- (2, 2, 1, 0)&#45;&gt;(2, 2, 2, 0) -->
<g id="edge8" class="edge">
<title>(2, 2, 1, 0)-&gt;(2, 2, 2, 0)</title>
<path fill="none" stroke="#000000" d="M111.2654,-215.8314C111.2654,-208.131 111.2654,-198.9743 111.2654,-190.4166"/>
<polygon fill="#000000" stroke="#000000" points="114.7655,-190.4132 111.2654,-180.4133 107.7655,-190.4133 114.7655,-190.4132"/>
</g>
<!-- (2, 2, 1, 1) -->
<g id="node10" class="node">
<title>(2, 2, 1, 1)</title>
<ellipse fill="none" stroke="#000000" cx="232.2654" cy="-162" rx="51.0319" ry="18"/>
<text text-anchor="middle" x="232.2654" y="-157.8" font-family="Times,serif" font-size="14.00" fill="#000000">(2, 2, 1, 1)</text>
</g>
<!-- (2, 2, 1, 0)&#45;&gt;(2, 2, 1, 1) -->
<g id="edge9" class="edge">
<title>(2, 2, 1, 0)-&gt;(2, 2, 1, 1)</title>
<path fill="none" stroke="#000000" d="M137.5206,-218.3771C155.0415,-207.9514 178.276,-194.1259 197.3509,-182.7756"/>
<polygon fill="#000000" stroke="#000000" points="199.2575,-185.7139 206.0614,-177.5924 195.678,-179.6983 199.2575,-185.7139"/>
</g>
<!-- (2, 2, 2, 1) -->
<g id="node8" class="node">
<title>(2, 2, 2, 1)</title>
<ellipse fill="none" stroke="#000000" cx="171.2654" cy="-90" rx="51.0319" ry="18"/>
<text text-anchor="middle" x="171.2654" y="-85.8" font-family="Times,serif" font-size="14.00" fill="#000000">(2, 2, 2, 1)</text>
</g>
<!-- (2, 2, 2, 0)&#45;&gt;(2, 2, 2, 1) -->
<g id="edge10" class="edge">
<title>(2, 2, 2, 0)-&gt;(2, 2, 2, 1)</title>
<path fill="none" stroke="#000000" d="M125.7897,-144.5708C133.1055,-135.7919 142.112,-124.9841 150.1744,-115.3093"/>
<polygon fill="#000000" stroke="#000000" points="152.9538,-117.4411 156.6669,-107.5182 147.5762,-112.9598 152.9538,-117.4411"/>
</g>
<!-- (2, 2, 2, 2) -->
<g id="node9" class="node">
<title>(2, 2, 2, 2)</title>
<ellipse fill="none" stroke="#000000" cx="171.2654" cy="-18" rx="51.0319" ry="18"/>
<text text-anchor="middle" x="171.2654" y="-13.8" font-family="Times,serif" font-size="14.00" fill="#000000">(2, 2, 2, 2)</text>
</g>
<!-- (2, 2, 2, 1)&#45;&gt;(2, 2, 2, 2) -->
<g id="edge11" class="edge">
<title>(2, 2, 2, 1)-&gt;(2, 2, 2, 2)</title>
<path fill="none" stroke="#000000" d="M171.2654,-71.8314C171.2654,-64.131 171.2654,-54.9743 171.2654,-46.4166"/>
<polygon fill="#000000" stroke="#000000" points="174.7655,-46.4132 171.2654,-36.4133 167.7655,-46.4133 174.7655,-46.4132"/>
</g>
<!-- (2, 2, 1, 1)&#45;&gt;(2, 2, 2, 1) -->
<g id="edge12" class="edge">
<title>(2, 2, 1, 1)-&gt;(2, 2, 2, 1)</title>
<path fill="none" stroke="#000000" d="M217.499,-144.5708C210.0063,-135.7269 200.769,-124.8239 192.526,-115.0945"/>
<polygon fill="#000000" stroke="#000000" points="195.0305,-112.6361 185.8958,-107.2687 189.6896,-117.161 195.0305,-112.6361"/>
</g>
<!-- (2, 1, 1, 0)&#45;&gt;(2, 2, 1, 0) -->
<g id="edge13" class="edge">
<title>(2, 1, 1, 0)-&gt;(2, 2, 1, 0)</title>
<path fill="none" stroke="#000000" d="M157.499,-288.5708C150.0063,-279.7269 140.769,-268.8239 132.526,-259.0945"/>
<polygon fill="#000000" stroke="#000000" points="135.0305,-256.6361 125.8958,-251.2687 129.6896,-261.161 135.0305,-256.6361"/>
</g>
<!-- (2, 1, 1, 1) -->
<g id="node12" class="node">
<title>(2, 1, 1, 1)</title>
<ellipse fill="none" stroke="#000000" cx="232.2654" cy="-234" rx="51.0319" ry="18"/>
<text text-anchor="middle" x="232.2654" y="-229.8" font-family="Times,serif" font-size="14.00" fill="#000000">(2, 1, 1, 1)</text>
</g>
<!-- (2, 1, 1, 0)&#45;&gt;(2, 1, 1, 1) -->
<g id="edge14" class="edge">
<title>(2, 1, 1, 0)-&gt;(2, 1, 1, 1)</title>
<path fill="none" stroke="#000000" d="M186.7897,-288.5708C194.1055,-279.7919 203.112,-268.9841 211.1744,-259.3093"/>
<polygon fill="#000000" stroke="#000000" points="213.9538,-261.4411 217.6669,-251.5182 208.5762,-256.9598 213.9538,-261.4411"/>
</g>
<!-- (2, 1, 1, 1)&#45;&gt;(2, 2, 1, 1) -->
<g id="edge15" class="edge">
<title>(2, 1, 1, 1)-&gt;(2, 2, 1, 1)</title>
<path fill="none" stroke="#000000" d="M232.2654,-215.8314C232.2654,-208.131 232.2654,-198.9743 232.2654,-190.4166"/>
<polygon fill="#000000" stroke="#000000" points="235.7655,-190.4132 232.2654,-180.4133 228.7655,-190.4133 235.7655,-190.4132"/>
</g>
<!-- (1, 1, 0, 0)&#45;&gt;(2, 1, 0, 0) -->
<g id="edge16" class="edge">
<title>(1, 1, 0, 0)-&gt;(2, 1, 0, 0)</title>
<path fill="none" stroke="#000000" d="M206.0102,-434.3771C188.4893,-423.9514 165.2548,-410.1259 146.1799,-398.7756"/>
<polygon fill="#000000" stroke="#000000" points="147.8528,-395.6983 137.4694,-393.5924 144.2733,-401.7139 147.8528,-395.6983"/>
</g>
<!-- (1, 1, 1, 0) -->
<g id="node14" class="node">
<title>(1, 1, 1, 0)</title>
<ellipse fill="none" stroke="#000000" cx="232.2654" cy="-378" rx="51.0319" ry="18"/>
<text text-anchor="middle" x="232.2654" y="-373.8" font-family="Times,serif" font-size="14.00" fill="#000000">(1, 1, 1, 0)</text>
</g>
<!-- (1, 1, 0, 0)&#45;&gt;(1, 1, 1, 0) -->
<g id="edge17" class="edge">
<title>(1, 1, 0, 0)-&gt;(1, 1, 1, 0)</title>
<path fill="none" stroke="#000000" d="M232.2654,-431.8314C232.2654,-424.131 232.2654,-414.9743 232.2654,-406.4166"/>
<polygon fill="#000000" stroke="#000000" points="235.7655,-406.4132 232.2654,-396.4133 228.7655,-406.4133 235.7655,-406.4132"/>
</g>
<!-- (1, 1, 1, 0)&#45;&gt;(2, 1, 1, 0) -->
<g id="edge18" class="edge">
<title>(1, 1, 1, 0)-&gt;(2, 1, 1, 0)</title>
<path fill="none" stroke="#000000" d="M217.7411,-360.5708C210.4254,-351.7919 201.4189,-340.9841 193.3565,-331.3093"/>
<polygon fill="#000000" stroke="#000000" points="195.9546,-328.9598 186.8639,-323.5182 190.577,-333.4411 195.9546,-328.9598"/>
</g>
<!-- (1, 1, 1, 1) -->
<g id="node15" class="node">
<title>(1, 1, 1, 1)</title>
<ellipse fill="none" stroke="#000000" cx="293.2654" cy="-306" rx="51.0319" ry="18"/>
<text text-anchor="middle" x="293.2654" y="-301.8" font-family="Times,serif" font-size="14.00" fill="#000000">(1, 1, 1, 1)</text>
</g>
<!-- (1, 1, 1, 0)&#45;&gt;(1, 1, 1, 1) -->
<g id="edge19" class="edge">
<title>(1, 1, 1, 0)-&gt;(1, 1, 1, 1)</title>
<path fill="none" stroke="#000000" d="M247.0318,-360.5708C254.5246,-351.7269 263.7618,-340.8239 272.0048,-331.0945"/>
<polygon fill="#000000" stroke="#000000" points="274.8412,-333.161 278.635,-323.2687 269.5003,-328.6361 274.8412,-333.161"/>
</g>
<!-- (1, 1, 1, 1)&#45;&gt;(2, 1, 1, 1) -->
<g id="edge20" class="edge">
<title>(1, 1, 1, 1)-&gt;(2, 1, 1, 1)</title>
<path fill="none" stroke="#000000" d="M278.499,-288.5708C271.0063,-279.7269 261.769,-268.8239 253.526,-259.0945"/>
<polygon fill="#000000" stroke="#000000" points="256.0305,-256.6361 246.8958,-251.2687 250.6896,-261.161 256.0305,-256.6361"/>
</g>
</g>
</svg>